<svg xmlns="http://www.w3.org/2000/svg" width="50" height="40" viewBox="0 0 50 40"><defs><style>.a{fill:#e61437;}</style></defs><g transform="translate(-263.633 -236.64)"><path class="a" d="M279.547,255.791a10.374,10.374,0,0,1-3.566,4.34,10.872,10.872,0,0,1-6.528,2.139,6.327,6.327,0,0,1-4.742-2.106,5.151,5.151,0,0,1-.768-5.042,9.629,9.629,0,0,1,3.953-4.746,10.891,10.891,0,0,1,6.227-1.913,6.189,6.189,0,0,1,5.287,3.032A4.725,4.725,0,0,1,279.547,255.791Z" transform="translate(0 14.359)"/><path class="a" d="M280.37,241.466q3.016-4.2,7.144-4.759t7.469,3.512a16.231,16.231,0,0,1,2.77,9.888,19.015,19.015,0,0,1-3.1,10.512,10.189,10.189,0,0,1-8.887,4.684,7.438,7.438,0,0,1-5.89-3.72,17.45,17.45,0,0,1-2.58-8.973Q277.353,245.667,280.37,241.466Z" transform="translate(15.879 0)"/></g></svg>