<svg xmlns="http://www.w3.org/2000/svg" width="50" height="40" viewBox="0 0 50 40"><defs><style>.a{fill:#e61437;}</style></defs><g transform="translate(-533.645 -371.436)"><path class="a" d="M533.915,375.511a6.454,6.454,0,0,1,2.327-2.687,7.738,7.738,0,0,1,4.337-1.385,4.432,4.432,0,0,1,3.2,1.221,2.924,2.924,0,0,1,.579,3.062,5.989,5.989,0,0,1-2.579,2.939,7.76,7.76,0,0,1-4.138,1.244,4.243,4.243,0,0,1-3.575-1.78A2.658,2.658,0,0,1,533.915,375.511Z" transform="translate(0 0)"/><path class="a" d="M554.822,392.567a12.642,12.642,0,0,1-3.765,6.033,15.315,15.315,0,0,1-8.205,4,9.1,9.1,0,0,1-6.784-1.528q-2.648-2.006-2.161-5.947a11.754,11.754,0,0,1,4.186-6.606,15.38,15.38,0,0,1,7.855-3.667,8.758,8.758,0,0,1,7.722,2.533A5.409,5.409,0,0,1,554.822,392.567Z" transform="translate(0.144 8.74)"/><path class="a" d="M556.094,392.719a10.618,10.618,0,0,1-2.573-6.432,6.169,6.169,0,0,1,1.962-4.842,5.581,5.581,0,0,1,5.241-1,10.081,10.081,0,0,1,5.17,3.733,10.618,10.618,0,0,1,2.321,6.142,6.1,6.1,0,0,1-2.9,5.431,5.161,5.161,0,0,1-4.492.336A10.868,10.868,0,0,1,556.094,392.719Z" transform="translate(15.424 5.77)"/></g></svg>