<svg xmlns="http://www.w3.org/2000/svg" width="24" height="24" viewBox="0 0 24 24"><defs><style>.a{fill:none;}.b{fill:#e61437;}</style></defs><rect class="a" width="24" height="24"/><g transform="translate(-573.845 -821.587)"><path class="b" d="M595.291,828.477a3.628,3.628,0,0,1-1.619.594,3.778,3.778,0,0,1-2.309-.427,2.186,2.186,0,0,1-1.1-1.387,1.462,1.462,0,0,1,.087-.931,9.578,9.578,0,0,0-4.558.756,5.143,5.143,0,0,0,.216-1.3,11.441,11.441,0,0,0-.037-1.586,11.831,11.831,0,0,0-.191-1.323.338.338,0,0,0-.3-.274.777.777,0,0,0-.106-.008.645.645,0,0,0-.367.112.294.294,0,0,0-.116.364,10.586,10.586,0,0,1,.494,2.045,5.254,5.254,0,0,1,.02,1.364c-.06.366-.139.56-.258.63l-.007.005-.009,0a.19.19,0,0,1-.068.011c-.1,0-.275-.058-.7-.512a8.508,8.508,0,0,1-1.041-1.423,6.488,6.488,0,0,1-.763-1.856.381.381,0,0,0-.388-.287l-.08,0a1.026,1.026,0,0,0-.564.169.442.442,0,0,0-.221.481,6.168,6.168,0,0,0,.6,1.419,11.21,11.21,0,0,0,1.049,1.561c.078.1.156.189.234.277-1.266-.75-3.542-1.4-6.575.6-3.15,2.075-3.578,7.4-1.449,11.212,2.384,4.274,7.775,3.791,9.663,3.472a2.575,2.575,0,0,0-.256.24,5.132,5.132,0,0,0-.726,1.011.184.184,0,0,0,.029.215.325.325,0,0,0,.207.109.165.165,0,0,0,.179-.111,4.379,4.379,0,0,1,.394-.787,2.188,2.188,0,0,1,.358-.437c.105-.09.179-.131.222-.124s.074.129.085.336a3.5,3.5,0,0,1-.052.734,2.7,2.7,0,0,1-.256.8.2.2,0,0,0,.055.244.475.475,0,0,0,.276.134.23.23,0,0,0,.243-.116,2.566,2.566,0,0,0,.2-.633,4.766,4.766,0,0,0,.089-.8,2.465,2.465,0,0,0-.071-.705l0-.01a7.1,7.1,0,0,0,8,.279C598.133,839.994,599.52,832.291,595.291,828.477Z"/></g></svg>