<svg xmlns="http://www.w3.org/2000/svg" width="150" height="70" viewBox="0 0 150 70"><defs><style>.a{fill:none;}.b{fill:#e61437;}</style></defs><rect class="a" width="150" height="70"/><g transform="translate(31 0)"><path class="b" d="M552.235,378.567a11.294,11.294,0,0,0-4.071-4.7,13.541,13.541,0,0,0-7.59-2.424,7.755,7.755,0,0,0-5.6,2.137q-1.982,2.044-1.013,5.359a10.481,10.481,0,0,0,4.513,5.144,13.58,13.58,0,0,0,7.242,2.178,7.425,7.425,0,0,0,6.256-3.114A4.652,4.652,0,0,0,552.235,378.567Z" transform="translate(-465.208 -371.436)"/><path class="b" d="M534.19,398.437q1.287,5.415,6.589,10.558,7.114,6.167,14.359,7.005t11.872-2.673q4.634-3.51,3.782-10.407-1.24-6.32-7.326-11.561a26.916,26.916,0,0,0-13.747-6.417,15.326,15.326,0,0,0-13.514,4.434Q532.906,393.021,534.19,398.437Z" transform="translate(-484.001 -346.162)"/><path class="b" d="M574.743,402.093q4.513-5.846,4.5-11.256a10.8,10.8,0,0,0-3.434-8.473q-3.422-3.062-9.172-1.754a17.643,17.643,0,0,0-9.047,6.533,18.582,18.582,0,0,0-4.062,10.749q-.233,5.754,5.082,9.5a9.031,9.031,0,0,0,7.86.589A19.019,19.019,0,0,0,574.743,402.093Z" transform="translate(-553.521 -354.75)"/></g></svg>