<svg xmlns="http://www.w3.org/2000/svg" width="150" height="78" viewBox="0 0 150 78"><defs><style>.a{fill:none;}.b{fill:#e61437;}</style></defs><rect class="a" width="150" height="78"/><g transform="translate(-263.633 -236.64)"><path class="b" d="M267.255,250.087a2.312,2.312,0,0,1-.811.962,2.519,2.519,0,0,1-1.485.474,1.456,1.456,0,0,1-1.079-.467,1.118,1.118,0,0,1-.175-1.117,2.148,2.148,0,0,1,.9-1.052,2.526,2.526,0,0,1,1.417-.424,1.417,1.417,0,0,1,1.2.672A1.023,1.023,0,0,1,267.255,250.087Z" transform="translate(0 -6.021)"/><path class="b" d="M277.995,237.709a2.4,2.4,0,0,1,1.626-1.055,1.854,1.854,0,0,1,1.7.778,3.529,3.529,0,0,1,.63,2.191,4.135,4.135,0,0,1-.706,2.33,2.336,2.336,0,0,1-2.022,1.038,1.7,1.7,0,0,1-1.34-.824,3.794,3.794,0,0,1-.587-1.989A4.129,4.129,0,0,1,277.995,237.709Z" transform="translate(-6.94 0)"/><path class="b" d="M305.366,333.289q-.053-1.527-.089-2.787a1.851,1.851,0,0,0-1.166-1.8,2.431,2.431,0,0,0-2.038.133,1.626,1.626,0,0,0-.836,1.793,7.01,7.01,0,0,0-3.551-1.3,5.672,5.672,0,0,0-3.194.746,6.032,6.032,0,0,0-2.518,3.372,10.605,10.605,0,0,0-.41,4.749,8.78,8.78,0,0,0,1.771,4.34,5.783,5.783,0,0,0,4.04,2.166,6.281,6.281,0,0,0,2.768-.382,3.476,3.476,0,0,0,1.7-1.2,9.836,9.836,0,0,1-.783,4.455,3.656,3.656,0,0,1-1.93,1.952,2.272,2.272,0,0,1-2.091-.24,3.146,3.146,0,0,1-1.264-2.139,1.26,1.26,0,0,0-1.13-1.057,1.879,1.879,0,0,0-1.557.542,1.611,1.611,0,0,0-.267,1.829,5.056,5.056,0,0,0,2.963,2.938,6.766,6.766,0,0,0,3.906.239,6.2,6.2,0,0,0,3.622-2.281A9.822,9.822,0,0,0,305,345.341a27.018,27.018,0,0,0,.471-4.97Q305.491,336.626,305.366,333.289Zm-4.236,6.8a2.662,2.662,0,0,1-2.064,1.864,2.922,2.922,0,0,1-2.412-.674,4.4,4.4,0,0,1-1.245-2.228,8.655,8.655,0,0,1-.2-2.92,5.6,5.6,0,0,1,1.237-3.3,2.853,2.853,0,0,1,2.233-1.038,2.785,2.785,0,0,1,2.136,1.225,5.778,5.778,0,0,1,.943,3.47A9.939,9.939,0,0,1,301.131,340.087Z" transform="translate(-14.136 -46.798)"/><path class="b" d="M299.661,276.115a1.87,1.87,0,0,1-1.236,1.676,2.561,2.561,0,0,1-2.142-.107,2.041,2.041,0,0,1-1.014-2.084q.035-.549.107-1.312.2-2.146.373-5.258t.071-6.18a19.179,19.179,0,0,0-.764-5.116q-.658-2.049-2.116-2.084-1.44.106-2.24,1.977a17.7,17.7,0,0,0-1.155,4.717,58.2,58.2,0,0,0-.427,5.87q-.071,3.023-.053,5.453,0,1.986-.035,3.068a1.8,1.8,0,0,1-1.3,1.711,2.831,2.831,0,0,1-2.214-.257,2.026,2.026,0,0,1-1.057-1.968q.035-.408.071-.957.177-2.075.346-5.267t.063-6.446a22.887,22.887,0,0,0-.765-5.532q-.658-2.279-2.134-2.545-1.173-.177-2.276,1.684a16.024,16.024,0,0,0-1.529,6.215,57.917,57.917,0,0,0,.409,11.659,1.888,1.888,0,0,1-.916,1.88,2.411,2.411,0,0,1-2.08.222,2.045,2.045,0,0,1-1.289-1.906q-.2-2.216-.409-4.434-.338-3.21-.578-6.667t-.151-7.465a2.061,2.061,0,0,1,.773-1.631,2.64,2.64,0,0,1,1.645-.55,2.4,2.4,0,0,1,1.608.585,2.16,2.16,0,0,1,.667,1.773,6.407,6.407,0,0,1,2.266-3.148,5.21,5.21,0,0,1,3.3-1.046,4.5,4.5,0,0,1,3.165,1.543,8.447,8.447,0,0,1,1.885,4.6,6.757,6.757,0,0,1,1.769-4.255,5.638,5.638,0,0,1,3.573-1.8,4.817,4.817,0,0,1,3.751,1.286,8.146,8.146,0,0,1,2.285,5,40.321,40.321,0,0,1,.338,6.455q-.089,3.263-.338,6.366Q299.749,274.075,299.661,276.115Z" transform="translate(-4.859 -8.149)"/><path class="b" d="M342.338,336.772a31.231,31.231,0,0,1-.56,5.538,11.158,11.158,0,0,1-1.807,4.429,5.4,5.4,0,0,1-3.675,2.184,9.59,9.59,0,0,1-2.634-.009,5.989,5.989,0,0,1-2.492-.931,4.777,4.777,0,0,1-1.761-2.237,1.616,1.616,0,0,1,.267-1.837,1.926,1.926,0,0,1,1.566-.542,1.226,1.226,0,0,1,1.121,1.065,3.148,3.148,0,0,0,1.264,2.139,2.254,2.254,0,0,0,2.091.231,3.7,3.7,0,0,0,1.931-1.962,9.792,9.792,0,0,0,.783-4.437,3.361,3.361,0,0,1-1.682,1.2,6.328,6.328,0,0,1-2.785.381,5.408,5.408,0,0,1-3.8-1.917,8.526,8.526,0,0,1-1.673-3.825,19.518,19.518,0,0,1-.311-4.313,28.619,28.619,0,0,1,.3-3.381,1.553,1.553,0,0,1,1.29-1.287,3.227,3.227,0,0,1,2.046.186,1.32,1.32,0,0,1,.917,1.349q-.036.284-.09.6-.213,1.315-.4,3.142a18.961,18.961,0,0,0-.035,3.568,5.393,5.393,0,0,0,.943,2.8,2.6,2.6,0,0,0,2.536.887,2.66,2.66,0,0,0,2.029-2.157,15.275,15.275,0,0,0,.516-4.3q-.018-2.423-.2-4.358a1.865,1.865,0,0,1,.979-1.943,2.632,2.632,0,0,1,2.073-.088,1.565,1.565,0,0,1,1.13,1.464q.017,1.3.071,2.858Q342.383,333.87,342.338,336.772Z" transform="translate(-32.78 -45.905)"/><path class="b" d="M348.421,272.209a9.117,9.117,0,0,0-1.947-3.795,5.847,5.847,0,0,0-3.609-1.915,7.293,7.293,0,0,0-4.383.7,4.764,4.764,0,0,0-2.551,3.271,1.173,1.173,0,0,0,.684,1.179,2.357,2.357,0,0,0,1.609.292,1.218,1.218,0,0,0,1.031-1.117,3.163,3.163,0,0,1,1.484-2.429,2.039,2.039,0,0,1,2.427.293q1.227.967,1.636,4.088a9.492,9.492,0,0,0-5.716.443,5.94,5.94,0,0,0-3,2.979,6.39,6.39,0,0,0-.409,3.981,6.077,6.077,0,0,0,2.089,3.449,6.677,6.677,0,0,0,4.462,1.4,6.143,6.143,0,0,0,3.823-1.277,6.875,6.875,0,0,0,2.08-3.032,13.259,13.259,0,0,0,.747-3.9A15.155,15.155,0,0,0,348.421,272.209Zm-3.564,7a5.493,5.493,0,0,1-1.2,2.872,2.446,2.446,0,0,1-2.586.8,2.71,2.71,0,0,1-1.778-1.64,5.356,5.356,0,0,1-.329-2.749,5.111,5.111,0,0,1,1.058-2.6,3.072,3.072,0,0,1,2.382-1.17,2.233,2.233,0,0,1,2.1,1.419A5.677,5.677,0,0,1,344.857,279.214Z" transform="translate(-36.518 -15.167)"/><path class="b" d="M377.463,341.24a7.134,7.134,0,0,1-2.331,4.038,6.344,6.344,0,0,1-3.773,1.127,5.158,5.158,0,0,1-4.209-1.562,8.335,8.335,0,0,1-1.868-4.074,22.48,22.48,0,0,1-.356-4.979q.1-2.521.347-4.3a1.577,1.577,0,0,1,1.362-1.269,3.739,3.739,0,0,1,2.206.186,1.355,1.355,0,0,1,1.006,1.385,1.062,1.062,0,0,1-.035.248q-.179,1.172-.383,3.107a34.525,34.525,0,0,0-.187,3.949,10.431,10.431,0,0,0,.534,3.444,2.182,2.182,0,0,0,1.78,1.606,2.382,2.382,0,0,0,2.171-.825,6.638,6.638,0,0,0,1.228-3.5,33.358,33.358,0,0,0-.036-6.9,1.161,1.161,0,0,1,.8-1.216,2.439,2.439,0,0,1,1.664-.036,1.194,1.194,0,0,1,.9,1.145A34.19,34.19,0,0,1,377.463,341.24Z" transform="translate(-51.443 -47.614)"/><path class="b" d="M369.943,320.626a1.3,1.3,0,0,1,.788-1.05,2.5,2.5,0,0,1,1.6-.107,2.922,2.922,0,0,1,1.5.829,1.633,1.633,0,0,1,.416,1.539,1.19,1.19,0,0,1-.767.8,2.687,2.687,0,0,1-1.457.107,2.911,2.911,0,0,1-1.6-.845A1.677,1.677,0,0,1,369.943,320.626Z" transform="translate(-53.999 -42.139)"/><path class="b" d="M381.864,320.626a1.3,1.3,0,0,1,.788-1.05,2.5,2.5,0,0,1,1.6-.107,2.922,2.922,0,0,1,1.5.829,1.633,1.633,0,0,1,.416,1.539,1.19,1.19,0,0,1-.767.8,2.688,2.688,0,0,1-1.457.107,2.911,2.911,0,0,1-1.6-.845A1.679,1.679,0,0,1,381.864,320.626Z" transform="translate(-60.054 -42.139)"/><path class="b" d="M383.611,261.646q-.2-3.4-.586-6.189a1.84,1.84,0,0,0-1.4-1.614,2.961,2.961,0,0,0-2.161.292,1.65,1.65,0,0,0-.933,1.694q.2,1.313.391,2.2.2.976.329,1.995a23.653,23.653,0,0,1,.152,2.7,6.222,6.222,0,0,0-4.542-1.454,6.041,6.041,0,0,0-3.778,1.986,8.469,8.469,0,0,0-2.027,4.38,11.257,11.257,0,0,0,.32,5.027,8.132,8.132,0,0,0,2.569,4.025,6.423,6.423,0,0,0,4.721,1.375,7.331,7.331,0,0,0,3.547-1.33,6.856,6.856,0,0,0,2.409-3.1,18.986,18.986,0,0,0,1-5.373A55.987,55.987,0,0,0,383.611,261.646Zm-4.16,8.405a9.756,9.756,0,0,1-.889,3.786,2.969,2.969,0,0,1-2.151,1.853,2.406,2.406,0,0,1-2.223-.976,6.716,6.716,0,0,1-1.236-2.837,11.346,11.346,0,0,1-.168-3.564,5.878,5.878,0,0,1,1.377-3.476,2.6,2.6,0,0,1,2.347-.869,3.153,3.153,0,0,1,2.151,1.729A8.248,8.248,0,0,1,379.451,270.051Z" transform="translate(-53.473 -8.717)"/><path class="b" d="M560.431,261.729a2.5,2.5,0,0,1,1.6-.107,2.922,2.922,0,0,1,1.5.829,1.634,1.634,0,0,1,.415,1.539,1.19,1.19,0,0,1-.766.8,2.691,2.691,0,0,1-1.458.107,2.911,2.911,0,0,1-1.6-.845,1.679,1.679,0,0,1-.486-1.27A1.3,1.3,0,0,1,560.431,261.729Z" transform="translate(-150.359 -12.681)"/><path class="b" d="M564,275.009q-.125,2.944-.124,5.781,0,2.376-.071,4.664a1.227,1.227,0,0,1-.916,1.037,2.608,2.608,0,0,1-1.671.035,1.378,1.378,0,0,1-1-1.179q-.213-2.127-.293-5.08t-.045-5.2a1.578,1.578,0,0,1,1.111-1.516,2.833,2.833,0,0,1,2.009.044A1.447,1.447,0,0,1,564,275.009Z" transform="translate(-150.472 -18.712)"/><path class="b" d="M523.387,267.446a1.654,1.654,0,0,1,1.36-1.4,3.431,3.431,0,0,1,2.214.2,1.455,1.455,0,0,1,1,1.516,19.426,19.426,0,0,0,.276,6.047,25.451,25.451,0,0,0,1.511,5.107q.9,2.058,1.431,2.057.462-.088,1.191-1.4a15.542,15.542,0,0,0,1.324-3.866,31.744,31.744,0,0,0,.685-6.33,1.19,1.19,0,0,1,.933-1.206,2.323,2.323,0,0,1,1.68.213,1.323,1.323,0,0,1,.747,1.383,36.17,36.17,0,0,1-.827,4.052,34.487,34.487,0,0,1-1.547,4.637,15.541,15.541,0,0,1-2.249,3.9,4.628,4.628,0,0,1-2.969,1.827,3.319,3.319,0,0,1-2.8-1.729,17.827,17.827,0,0,1-2.267-4.6,33.962,33.962,0,0,1-1.422-5.621A18.784,18.784,0,0,1,523.387,267.446Z" transform="translate(-131.915 -14.926)"/><path class="b" d="M465.258,322.7a1.632,1.632,0,0,1,.415,1.539,1.191,1.191,0,0,1-.766.8,2.687,2.687,0,0,1-1.457.107,2.917,2.917,0,0,1-1.6-.845,1.68,1.68,0,0,1-.486-1.271,1.3,1.3,0,0,1,.788-1.049,2.493,2.493,0,0,1,1.6-.108A2.918,2.918,0,0,1,465.258,322.7Z" transform="translate(-100.438 -43.363)"/><path class="b" d="M415.017,277.112a5.622,5.622,0,0,0,2.925-2.749,5.728,5.728,0,0,0,.427-3.679,5.284,5.284,0,0,0-1.974-3.13,6.146,6.146,0,0,0-4.258-1.1,6.945,6.945,0,0,0-4.649,2.163,8.638,8.638,0,0,0-2.115,4.46,11.425,11.425,0,0,0,.284,5.107,7.626,7.626,0,0,0,2.542,3.972,7.082,7.082,0,0,0,4.071,1.6,5.342,5.342,0,0,0,3.716-.984,4.781,4.781,0,0,0,1.84-2.846,1.03,1.03,0,0,0-.578-1.073,1.788,1.788,0,0,0-1.369-.177,1.224,1.224,0,0,0-.88,1.108,2.2,2.2,0,0,1-1.484,1.8,2.715,2.715,0,0,1-2.427-.514q-1.262-.878-1.6-3.609A9.438,9.438,0,0,0,415.017,277.112Zm-3.475-1.188a2.143,2.143,0,0,1-1.734-1.295A4.087,4.087,0,0,1,409.63,272,4.8,4.8,0,0,1,411,269.532a2.706,2.706,0,0,1,2.542-.683,1.962,1.962,0,0,1,1.316,1.259,4.388,4.388,0,0,1,.178,2.394,4.784,4.784,0,0,1-1.4,2.624A2.778,2.778,0,0,1,411.541,275.924Z" transform="translate(-71.914 -15.176)"/><path class="b" d="M423.6,346.313a1.262,1.262,0,0,1-1.121,1.056,3.232,3.232,0,0,1-1.9-.16,1.2,1.2,0,0,1-.881-1.216c.012-.107.024-.231.035-.372q.179-1.189.347-3.1a32.247,32.247,0,0,0,.107-3.869,10.32,10.32,0,0,0-.6-3.355,2.166,2.166,0,0,0-1.78-1.553,2.062,2.062,0,0,0-1.931,1.145,9.249,9.249,0,0,0-1.068,3.1,34.6,34.6,0,0,0-.48,3.914q-.134,2.015-.169,3.577-.035,1.137-.071,1.757a1.313,1.313,0,0,1-1.174,1.056,3.473,3.473,0,0,1-1.967-.16,1.2,1.2,0,0,1-.917-1.216q.018-.142.036-.3.16-1.206.347-3.24a37.237,37.237,0,0,0,.142-4.18,12.429,12.429,0,0,0-.569-3.7,2.357,2.357,0,0,0-1.771-1.784,2.287,2.287,0,0,0-2.038,1.057,8.334,8.334,0,0,0-1.433,3.887,24.353,24.353,0,0,0,.143,7,1.146,1.146,0,0,1-.854,1.154,3.038,3.038,0,0,1-1.851.133,1.347,1.347,0,0,1-1.121-1.163q-.125-1.26-.285-2.521-.249-2.024-.427-4.2a45.769,45.769,0,0,1-.125-4.7,1.741,1.741,0,0,1,1.166-1.58,2.961,2.961,0,0,1,2.056-.044,1.375,1.375,0,0,1,1.032,1.376,5.123,5.123,0,0,1,2.874-3.053,4.452,4.452,0,0,1,3.737.231,5.663,5.663,0,0,1,2.679,3.55,5.943,5.943,0,0,1,2.162-3,4.533,4.533,0,0,1,5.855.506,6.334,6.334,0,0,1,1.7,3.47,31.04,31.04,0,0,1,.383,5.4Q423.827,343.935,423.6,346.313Z" transform="translate(-69.379 -47.93)"/><path class="b" d="M443.015,287.151a2.811,2.811,0,0,1-1.965.2,1.585,1.585,0,0,1-1.227-1.41q-.089-.975-.214-2.074-.391-3.192-.6-6.792a30.646,30.646,0,0,1,.312-6.792,9.815,9.815,0,0,1,2.32-5.16,6.343,6.343,0,0,1,4.018-1.871,5.96,5.96,0,0,1,4.1,1.117,5.412,5.412,0,0,1,2.089,4.069,1.28,1.28,0,0,1-.809,1.233,2.575,2.575,0,0,1-1.645.212,1.054,1.054,0,0,1-.924-1,4.117,4.117,0,0,0-.942-2.864,1.764,1.764,0,0,0-1.938-.417,3.6,3.6,0,0,0-1.857,1.933,9.156,9.156,0,0,0-.738,4.185,5.382,5.382,0,0,0,.542,2.553,1.677,1.677,0,0,0,1.263.816,8.269,8.269,0,0,0,1.857-.035q.48-.053,1.014-.089a1.016,1.016,0,0,1,1.023.665,1.845,1.845,0,0,1,.053,1.33.976.976,0,0,1-.969.7l-4.676-.088a37.813,37.813,0,0,0,.3,4.433q.3,2.518.5,3.724A1.4,1.4,0,0,1,443.015,287.151Z" transform="translate(-89.051 -13.538)"/><path class="b" d="M469.548,335.815a5.837,5.837,0,0,0-2.67-2.512,8.4,8.4,0,0,0-3.523-.763,9.425,9.425,0,0,0-2.883.444,6.361,6.361,0,0,0-2.465,1.464,6.45,6.45,0,0,0-1.638,2.716,11.6,11.6,0,0,0-.435,4.18,8.912,8.912,0,0,0,1.308,4.411,5.8,5.8,0,0,0,2.705,2.21,8.349,8.349,0,0,0,3.372.55,7.947,7.947,0,0,0,3.328-.79,6.115,6.115,0,0,0,2.6-2.5,10.626,10.626,0,0,0,1.21-4.766A8.8,8.8,0,0,0,469.548,335.815Zm-2.563,4.429a11.047,11.047,0,0,1-1.255,5.077q-1.006,1.527-2.233,1.376a3.085,3.085,0,0,1-2.163-1.642,8.222,8.222,0,0,1-1.059-3.976,8.778,8.778,0,0,1,1.006-4.82,3.109,3.109,0,0,1,2.42-1.668,2.725,2.725,0,0,1,2.384,1.367A6.99,6.99,0,0,1,466.985,340.243Z" transform="translate(-97.669 -48.836)"/><path class="b" d="M473.288,323.03a1.3,1.3,0,0,1,.788-1.049,2.491,2.491,0,0,1,1.6-.108,2.917,2.917,0,0,1,1.5.829,1.631,1.631,0,0,1,.416,1.539,1.192,1.192,0,0,1-.766.8,2.689,2.689,0,0,1-1.458.107,2.917,2.917,0,0,1-1.6-.845A1.676,1.676,0,0,1,473.288,323.03Z" transform="translate(-106.494 -43.363)"/><path class="b" d="M484.143,272.209a9.123,9.123,0,0,0-1.946-3.795,5.847,5.847,0,0,0-3.609-1.915,7.3,7.3,0,0,0-4.383.7,4.764,4.764,0,0,0-2.551,3.271,1.173,1.173,0,0,0,.684,1.179,2.359,2.359,0,0,0,1.609.292,1.219,1.219,0,0,0,1.031-1.117,3.161,3.161,0,0,1,1.484-2.429,2.04,2.04,0,0,1,2.427.293q1.227.967,1.636,4.088a9.492,9.492,0,0,0-5.716.443,5.943,5.943,0,0,0-3,2.979,6.4,6.4,0,0,0-.409,3.981,6.077,6.077,0,0,0,2.089,3.449,6.679,6.679,0,0,0,4.463,1.4,6.141,6.141,0,0,0,3.822-1.277,6.876,6.876,0,0,0,2.08-3.032,13.258,13.258,0,0,0,.746-3.9A15.157,15.157,0,0,0,484.143,272.209Zm-3.565,7a5.489,5.489,0,0,1-1.2,2.872,2.447,2.447,0,0,1-2.587.8,2.71,2.71,0,0,1-1.778-1.64,5.356,5.356,0,0,1-.329-2.749,5.114,5.114,0,0,1,1.058-2.6,3.073,3.073,0,0,1,2.382-1.17,2.233,2.233,0,0,1,2.1,1.419A5.672,5.672,0,0,1,480.578,279.214Z" transform="translate(-105.46 -15.167)"/><path class="b" d="M498.38,319.412a66.974,66.974,0,0,0-1.05,11.041,69.1,69.1,0,0,0,.427,11.023,1.142,1.142,0,0,1-.828,1.171,3.061,3.061,0,0,1-1.842.178,1.365,1.365,0,0,1-1.157-1.136,117.448,117.448,0,0,1,.036-22.934,1.672,1.672,0,0,1,1.4-1.527,3.017,3.017,0,0,1,2.162.435A1.65,1.65,0,0,1,498.38,319.412Z" transform="translate(-116.706 -41.015)"/><path class="b" d="M506.9,278.212a117.321,117.321,0,0,1,.036-22.911,1.67,1.67,0,0,1,1.4-1.525,3.013,3.013,0,0,1,2.16.434,1.648,1.648,0,0,1,.854,1.747,66.923,66.923,0,0,0-1.049,11.03A69.032,69.032,0,0,0,510.723,278a1.141,1.141,0,0,1-.827,1.17,3.054,3.054,0,0,1-1.84.177A1.363,1.363,0,0,1,506.9,278.212Z" transform="translate(-123.294 -8.703)"/><path class="b" d="M520.843,345.99a6.629,6.629,0,0,1-3.248,1.4,6.575,6.575,0,0,1-6.763-3.293,11.408,11.408,0,0,1-1.388-5.511,9.749,9.749,0,0,1,1.228-5.369,6.677,6.677,0,0,1,3.186-2.761,7.255,7.255,0,0,1,3.879-.453,6.222,6.222,0,0,1,3.3,1.536,4.488,4.488,0,0,1,1.451,3.212,1.117,1.117,0,0,1-.8,1,2.537,2.537,0,0,1-1.549.133,1.087,1.087,0,0,1-.908-.958,3.78,3.78,0,0,0-1.148-2.8,1.765,1.765,0,0,0-2.047-.026,4.84,4.84,0,0,0-1.869,2.387,9.985,9.985,0,0,0-.614,4.464,12.9,12.9,0,0,0,1.068,4.739,2.989,2.989,0,0,0,1.824,1.731,1.932,1.932,0,0,0,1.78-.444,3.337,3.337,0,0,0,.97-2.086,1.3,1.3,0,0,1,1.059-1.118,2.415,2.415,0,0,1,1.628.213,1.084,1.084,0,0,1,.694,1.118A4.828,4.828,0,0,1,520.843,345.99Z" transform="translate(-124.862 -47.5)"/><path class="b" d="M533.72,372.643a1.885,1.885,0,0,1,.645-.8,2.049,2.049,0,0,1,1.2-.41,1.185,1.185,0,0,1,.886.362.911.911,0,0,1,.16.907,1.746,1.746,0,0,1-.714.871,2.051,2.051,0,0,1-1.147.369,1.152,1.152,0,0,1-.99-.527A.834.834,0,0,1,533.72,372.643Z" transform="translate(-137.155 -68.644)"/><path class="b" d="M539.646,387.059a3.792,3.792,0,0,1-1.043,1.787,4.137,4.137,0,0,1-2.273,1.186,2.4,2.4,0,0,1-1.88-.452,1.838,1.838,0,0,1-.6-1.761,3.522,3.522,0,0,1,1.16-1.957,4.146,4.146,0,0,1,2.176-1.086,2.331,2.331,0,0,1,2.139.75A1.684,1.684,0,0,1,539.646,387.059Z" transform="translate(-137.25 -75.419)"/><path class="b" d="M545.837,346.035a1.622,1.622,0,0,1-.249-1.793,1.6,1.6,0,0,1,1.272-.825,1.267,1.267,0,0,1,1.29.843,2.1,2.1,0,0,0,1.433,1.323,1.72,1.72,0,0,0,1.5-.355,1.251,1.251,0,0,0,.355-1.429,2.53,2.53,0,0,0-.961-1.118,16.472,16.472,0,0,0-1.726-1.047,17.781,17.781,0,0,1-2.741-1.766,5.67,5.67,0,0,1-1.9-2.689,5.53,5.53,0,0,1,.507-4.678,6.276,6.276,0,0,1,3.471-2.556,6.726,6.726,0,0,1,4.352.08,5.349,5.349,0,0,1,3.15,3.249q.409,1.277-.3,1.837a2.174,2.174,0,0,1-1.611.47,1.078,1.078,0,0,1-1.077-.781q-.427-2.308-1.575-2.707a2.006,2.006,0,0,0-2.136.506,2.982,2.982,0,0,0-.916,2.467,3.452,3.452,0,0,0,1.192,2.272,13.136,13.136,0,0,0,2.332,1.58,11.214,11.214,0,0,1,2.722,1.962,3.812,3.812,0,0,1,.979,3.2,3.946,3.946,0,0,1-2.109,3.026,6.445,6.445,0,0,1-3.888.728A4.856,4.856,0,0,1,545.837,346.035Z" transform="translate(-142.33 -47.35)"/><path class="b" d="M554.234,383.921a3.271,3.271,0,0,1-.713-1.905,1.892,1.892,0,0,1,.544-1.434,1.47,1.47,0,0,1,1.452-.3,2.807,2.807,0,0,1,1.432,1.106,3.275,3.275,0,0,1,.643,1.819,1.842,1.842,0,0,1-.8,1.609,1.349,1.349,0,0,1-1.244.1A3.021,3.021,0,0,1,554.234,383.921Z" transform="translate(-147.252 -73.117)"/></g></svg>