<svg xmlns="http://www.w3.org/2000/svg" width="200" height="180" viewBox="0 0 200 180"><defs><style>.a{fill:none;}.b{fill:#e61437;}</style></defs><rect class="a" width="200" height="180" transform="translate(0)"/><g transform="translate(-235.203 -131.011)"><path class="b" d="M380.741,274.531a2.8,2.8,0,0,0-2.531.939,6.364,6.364,0,0,0-1.485,3.758,12.3,12.3,0,0,0,.181,3.853,7.27,7.27,0,0,0,1.333,3.067,2.591,2.591,0,0,0,2.4,1.055,3.2,3.2,0,0,0,2.32-2,10.572,10.572,0,0,0,.958-4.093,8.937,8.937,0,0,0-.853-4.707A3.4,3.4,0,0,0,380.741,274.531Z" transform="translate(-66.399 -67.354)"/><path class="b" d="M346.173,283.344a3.31,3.31,0,0,0-2.569,1.265,5.533,5.533,0,0,0-1.141,2.808,5.8,5.8,0,0,0,.355,2.972,2.925,2.925,0,0,0,1.917,1.773,2.634,2.634,0,0,0,2.789-.863,5.946,5.946,0,0,0,1.295-3.105,6.152,6.152,0,0,0-.384-3.317A2.408,2.408,0,0,0,346.173,283.344Z" transform="translate(-50.325 -71.509)"/><path class="b" d="M416.129,278.93a2.991,2.991,0,0,0,2.262-.863,5.176,5.176,0,0,0,1.5-2.837,4.755,4.755,0,0,0-.192-2.588,2.118,2.118,0,0,0-1.419-1.361,2.913,2.913,0,0,0-2.741.738,5.19,5.19,0,0,0-1.476,2.665,4.429,4.429,0,0,0,.192,2.847A2.311,2.311,0,0,0,416.129,278.93Z" transform="translate(-83.895 -65.81)"/><path class="b" d="M302.77,335.16a3.073,3.073,0,0,0-2.408,1.123,6.062,6.062,0,0,0-1.334,3.57,9.381,9.381,0,0,0,.221,3.156,4.763,4.763,0,0,0,1.343,2.409,3.145,3.145,0,0,0,2.6.729,2.873,2.873,0,0,0,2.226-2.015,10.771,10.771,0,0,0,.672-3.9,6.259,6.259,0,0,0-1.017-3.752A3,3,0,0,0,302.77,335.16Z" transform="translate(-29.94 -95.832)"/><path class="b" d="M481.9,283.344a3.311,3.311,0,0,0-2.569,1.265,5.537,5.537,0,0,0-1.141,2.808,5.8,5.8,0,0,0,.355,2.972,2.925,2.925,0,0,0,1.917,1.773,2.634,2.634,0,0,0,2.789-.863,5.941,5.941,0,0,0,1.294-3.105,6.147,6.147,0,0,0-.383-3.317A2.408,2.408,0,0,0,481.9,283.344Z" transform="translate(-114.037 -71.509)"/><path class="b" d="M582.531,284.139c-.341-2.651-.741-5.291-1.338-7.892-.272-1.246-.57-2.373-.882-3.392a1.5,1.5,0,0,0-2.9.8c.32,1.373.567,2.533.654,3.178.4,2.526.615,5.077.771,7.623.1,2.552.145,5.1.009,7.649a92.54,92.54,0,0,1-1.435,12.748c-2.664,16.546-10.087,31.682-20.69,42.418-2.211,2.734-4.41,5.324-6.193,7.381a1.2,1.2,0,0,0,1.516,1.829,52.15,52.15,0,0,0,8.152-5.84l1.53-1.341c.515-.445.958-.953,1.442-1.429l1.419-1.46.706-.736c.23-.25.44-.515.662-.772q1.308-1.557,2.6-3.144l2.363-3.321a64.413,64.413,0,0,0,7.193-14.564,101.16,101.16,0,0,0,3.813-15.709,90.554,90.554,0,0,0,1.161-16.021C583.041,289.463,582.813,286.794,582.531,284.139Z" transform="translate(-147.877 -66.086)"/><path class="b" d="M245.609,203.873c.524-.771,1.067-1.525,1.622-2.269a45.464,45.464,0,0,1,12.644-12.637,73.355,73.355,0,0,1,14.109-7.351c.1-.064.2-.125.291-.19,1.639-1.111,1.979-4.231-.956-4.231-2.211,0-7.086,1.957-10.111,3.391A44.452,44.452,0,0,0,258.821,183c-.709.446-1.391.9-2.079,1.4l-2.038,1.582a59.8,59.8,0,0,0-7.109,7.338,54.325,54.325,0,0,0-5.609,8.359,58.5,58.5,0,0,0-3.938,9.133,66.193,66.193,0,0,0-2.836,12.351.754.754,0,0,0,1.462.341A112.1,112.1,0,0,1,241,212,54.8,54.8,0,0,1,245.609,203.873Z" transform="translate(0 -21.679)"/><path class="b" d="M411.779,177.077a28.284,28.284,0,0,1-12.663,4.646q-10.972.926-18.059-3.334t-8.592-10.855a11.482,11.482,0,0,1,.683-7.283,74.935,74.935,0,0,0-35.655,5.92,40.326,40.326,0,0,0,1.691-10.205,88.758,88.758,0,0,0-.29-12.4,93.075,93.075,0,0,0-1.494-10.348,2.641,2.641,0,0,0-2.368-2.145,6.087,6.087,0,0,0-.827-.058,5.041,5.041,0,0,0-2.876.875,2.3,2.3,0,0,0-.9,2.848,82.555,82.555,0,0,1,3.863,16,40.836,40.836,0,0,1,.153,10.666c-.466,2.862-1.086,4.383-2.011,4.93l-.062.037-.067.024a1.578,1.578,0,0,1-.534.09c-.8,0-2.146-.455-5.486-4a66.375,66.375,0,0,1-8.145-11.132,50.8,50.8,0,0,1-5.971-14.517,2.982,2.982,0,0,0-3.034-2.25q-.315-.022-.626-.022a8.018,8.018,0,0,0-4.41,1.322,3.465,3.465,0,0,0-1.728,3.767,47.949,47.949,0,0,0,4.7,11.094,86.815,86.815,0,0,0,8.208,12.213c.608.758,1.217,1.474,1.826,2.167-9.9-5.867-27.7-10.945-51.429,4.685-24.64,16.232-27.984,57.845-11.334,87.694,18.65,33.436,60.818,29.655,75.587,27.162a19.2,19.2,0,0,0-2,1.878,37.484,37.484,0,0,0-3.316,4.113,39.227,39.227,0,0,0-2.368,3.792,1.431,1.431,0,0,0,.231,1.682,2.5,2.5,0,0,0,1.617.849,1.286,1.286,0,0,0,1.4-.869,34.375,34.375,0,0,1,3.085-6.153,16.9,16.9,0,0,1,2.8-3.416q1.233-1.054,1.733-.969.539.2.667,2.623a27.558,27.558,0,0,1-.4,5.742,21.067,21.067,0,0,1-2.009,6.228,1.572,1.572,0,0,0,.432,1.911,3.687,3.687,0,0,0,2.158,1.042,1.787,1.787,0,0,0,1.9-.906,20.424,20.424,0,0,0,1.541-4.95,36.766,36.766,0,0,0,.689-6.229,19.285,19.285,0,0,0-.549-5.516c-.008-.029-.018-.053-.025-.081,7.6,5.448,32.738,20.179,62.586,2.183C434.008,267.164,444.859,206.909,411.779,177.077ZM258.338,195.084a2.5,2.5,0,0,1-.875,1.04,2.712,2.712,0,0,1-1.6.513,1.569,1.569,0,0,1-1.164-.5,1.211,1.211,0,0,1-.188-1.208,2.32,2.32,0,0,1,.97-1.137,2.718,2.718,0,0,1,1.528-.458,1.526,1.526,0,0,1,1.3.726A1.109,1.109,0,0,1,258.338,195.084Zm4.1-6.873a2.585,2.585,0,0,1,1.753-1.14,2,2,0,0,1,1.833.841,3.822,3.822,0,0,1,.68,2.369,4.479,4.479,0,0,1-.761,2.519,2.517,2.517,0,0,1-2.181,1.122,1.831,1.831,0,0,1-1.445-.891,4.109,4.109,0,0,1-.633-2.15A4.472,4.472,0,0,1,262.436,188.211Zm21.87,60.4a29.289,29.289,0,0,1-.508,5.373,10.634,10.634,0,0,1-1.823,4.347,6.685,6.685,0,0,1-3.906,2.466,7.277,7.277,0,0,1-4.212-.259,5.459,5.459,0,0,1-3.2-3.176,1.745,1.745,0,0,1,.288-1.977,2.023,2.023,0,0,1,1.679-.586,1.36,1.36,0,0,1,1.219,1.142,3.4,3.4,0,0,0,1.363,2.312,2.444,2.444,0,0,0,2.255.259,3.947,3.947,0,0,0,2.081-2.111,10.658,10.658,0,0,0,.845-4.817,3.748,3.748,0,0,1-1.833,1.3,6.756,6.756,0,0,1-2.984.413,6.231,6.231,0,0,1-4.356-2.341,9.505,9.505,0,0,1-1.91-4.692,11.493,11.493,0,0,1,.442-5.134,6.519,6.519,0,0,1,2.715-3.646,6.1,6.1,0,0,1,3.444-.806,7.547,7.547,0,0,1,3.829,1.4,1.759,1.759,0,0,1,.9-1.938,2.615,2.615,0,0,1,2.2-.144,2,2,0,0,1,1.257,1.948q.037,1.363.1,3.013Q284.325,244.558,284.306,248.608Zm3.736-27.685a2.021,2.021,0,0,1-1.333,1.812,2.755,2.755,0,0,1-2.31-.115,2.208,2.208,0,0,1-1.093-2.253q.038-.594.115-1.418.211-2.32.4-5.685t.076-6.681a20.782,20.782,0,0,0-.824-5.531q-.71-2.215-2.281-2.253-1.553.115-2.416,2.138a19.176,19.176,0,0,0-1.246,5.1,63.061,63.061,0,0,0-.461,6.346q-.076,3.269-.057,5.9,0,2.147-.038,3.317a1.947,1.947,0,0,1-1.4,1.85,3.046,3.046,0,0,1-2.387-.278,2.192,2.192,0,0,1-1.14-2.128q.037-.441.076-1.035.191-2.244.374-5.694t.067-6.969a24.8,24.8,0,0,0-.824-5.981q-.709-2.464-2.3-2.751-1.265-.192-2.454,1.821t-1.648,6.72a62.775,62.775,0,0,0,.441,12.6,2.042,2.042,0,0,1-.987,2.032,2.594,2.594,0,0,1-2.243.24,2.21,2.21,0,0,1-1.39-2.061q-.212-2.4-.441-4.793-.365-3.47-.623-7.208t-.162-8.071a2.23,2.23,0,0,1,.834-1.764,2.842,2.842,0,0,1,1.774-.594,2.582,2.582,0,0,1,1.734.633,2.338,2.338,0,0,1,.719,1.917,6.926,6.926,0,0,1,2.444-3.4,5.608,5.608,0,0,1,3.556-1.131,4.853,4.853,0,0,1,3.413,1.668,9.145,9.145,0,0,1,2.032,4.975,7.314,7.314,0,0,1,1.907-4.6,6.074,6.074,0,0,1,3.853-1.946,5.186,5.186,0,0,1,4.045,1.39q1.85,1.61,2.464,5.406a43.707,43.707,0,0,1,.364,6.979q-.1,3.527-.364,6.882Q288.138,218.718,288.042,220.923Zm15.913,24.759a33.851,33.851,0,0,1-.6,5.987,12.081,12.081,0,0,1-1.948,4.788,5.817,5.817,0,0,1-3.963,2.361,10.314,10.314,0,0,1-2.84-.01,6.447,6.447,0,0,1-2.687-1.007,5.163,5.163,0,0,1-1.9-2.418,1.751,1.751,0,0,1,.288-1.986,2.074,2.074,0,0,1,1.689-.586,1.324,1.324,0,0,1,1.209,1.151,3.4,3.4,0,0,0,1.363,2.313,2.425,2.425,0,0,0,2.254.249A4,4,0,0,0,298.9,254.4a10.612,10.612,0,0,0,.845-4.8,3.625,3.625,0,0,1-1.814,1.3,6.808,6.808,0,0,1-3,.412,5.827,5.827,0,0,1-4.1-2.072,9.229,9.229,0,0,1-1.8-4.136,21.156,21.156,0,0,1-.336-4.663,31.023,31.023,0,0,1,.326-3.656,1.677,1.677,0,0,1,1.391-1.392,3.471,3.471,0,0,1,2.207.2,1.427,1.427,0,0,1,.989,1.459q-.039.307-.1.652-.23,1.421-.432,3.4a20.551,20.551,0,0,0-.038,3.857,5.842,5.842,0,0,0,1.017,3.032,2.794,2.794,0,0,0,2.735.959,2.872,2.872,0,0,0,2.188-2.332,16.557,16.557,0,0,0,.556-4.644q-.019-2.619-.211-4.712a2.017,2.017,0,0,1,1.055-2.1,2.831,2.831,0,0,1,2.236-.1,1.691,1.691,0,0,1,1.219,1.583q.018,1.4.076,3.09Q304,242.544,303.955,245.681Zm3.017-31.584a14.369,14.369,0,0,1-.805,4.218,7.434,7.434,0,0,1-2.243,3.278,6.614,6.614,0,0,1-4.122,1.38,7.188,7.188,0,0,1-4.812-1.514,6.573,6.573,0,0,1-2.253-3.729,6.925,6.925,0,0,1,.441-4.3,6.413,6.413,0,0,1,3.24-3.221,10.21,10.21,0,0,1,6.164-.479q-.441-3.374-1.764-4.419a2.194,2.194,0,0,0-2.617-.316,3.42,3.42,0,0,0-1.6,2.626,1.316,1.316,0,0,1-1.112,1.208,2.536,2.536,0,0,1-1.735-.316,1.269,1.269,0,0,1-.738-1.275,5.149,5.149,0,0,1,2.751-3.537,7.846,7.846,0,0,1,4.726-.757,6.3,6.3,0,0,1,3.892,2.07,9.866,9.866,0,0,1,2.1,4.1A16.426,16.426,0,0,1,306.972,214.1Zm14.733,34.568a7.717,7.717,0,0,1-2.514,4.366,6.828,6.828,0,0,1-4.068,1.219,5.554,5.554,0,0,1-4.539-1.688,9.022,9.022,0,0,1-2.015-4.4,24.367,24.367,0,0,1-.384-5.383q.105-2.725.374-4.644a1.7,1.7,0,0,1,1.469-1.372,4.023,4.023,0,0,1,2.379.2,1.464,1.464,0,0,1,1.085,1.5,1.153,1.153,0,0,1-.038.268q-.193,1.267-.413,3.359a37.441,37.441,0,0,0-.2,4.27,11.306,11.306,0,0,0,.576,3.723,2.355,2.355,0,0,0,1.92,1.737,2.565,2.565,0,0,0,2.341-.892A7.188,7.188,0,0,0,319,247.139a36.15,36.15,0,0,0-.039-7.456,1.255,1.255,0,0,1,.863-1.314,2.623,2.623,0,0,1,1.794-.039,1.29,1.29,0,0,1,.969,1.238A37.054,37.054,0,0,1,321.705,248.665ZM310.841,232.3a1.4,1.4,0,0,1,.85-1.135,2.687,2.687,0,0,1,1.728-.116,3.148,3.148,0,0,1,1.618.9,1.769,1.769,0,0,1,.448,1.664,1.285,1.285,0,0,1-.827.861,2.891,2.891,0,0,1-1.571.116,3.137,3.137,0,0,1-1.722-.914A1.816,1.816,0,0,1,310.841,232.3Zm6.325,0a1.4,1.4,0,0,1,.849-1.135,2.689,2.689,0,0,1,1.729-.116,3.148,3.148,0,0,1,1.618.9,1.769,1.769,0,0,1,.448,1.664,1.286,1.286,0,0,1-.827.861,2.891,2.891,0,0,1-1.571.116,3.136,3.136,0,0,1-1.723-.914A1.817,1.817,0,0,1,317.166,232.3Zm8.981-20.482a20.57,20.57,0,0,1-1.073,5.809,7.409,7.409,0,0,1-2.6,3.355,7.892,7.892,0,0,1-3.824,1.438,6.914,6.914,0,0,1-5.09-1.486,8.794,8.794,0,0,1-2.77-4.352,12.2,12.2,0,0,1-.345-5.435,9.167,9.167,0,0,1,2.185-4.735,6.509,6.509,0,0,1,4.074-2.147,6.7,6.7,0,0,1,4.9,1.572,25.663,25.663,0,0,0-.163-2.924q-.143-1.1-.354-2.157-.211-.958-.422-2.377a1.785,1.785,0,0,1,1.007-1.831,3.186,3.186,0,0,1,2.33-.316,1.988,1.988,0,0,1,1.514,1.745q.421,3.01.632,6.691A60.639,60.639,0,0,1,326.147,211.816Zm86.194-11.345a2.689,2.689,0,0,1,1.729-.116,3.148,3.148,0,0,1,1.618.9,1.77,1.77,0,0,1,.448,1.664,1.286,1.286,0,0,1-.826.861,2.893,2.893,0,0,1-1.572.116,3.136,3.136,0,0,1-1.722-.914,1.817,1.817,0,0,1-.524-1.373A1.4,1.4,0,0,1,412.341,200.471Zm3.723,7.837q-.134,3.183-.134,6.25,0,2.569-.076,5.042a1.326,1.326,0,0,1-.987,1.122,2.8,2.8,0,0,1-1.8.038,1.489,1.489,0,0,1-1.083-1.275q-.23-2.3-.316-5.493t-.048-5.627a1.705,1.705,0,0,1,1.2-1.639,3.047,3.047,0,0,1,2.166.048A1.565,1.565,0,0,1,416.064,208.308Zm-23.779-4.083a1.786,1.786,0,0,1,1.467-1.515,3.69,3.69,0,0,1,2.387.221,1.573,1.573,0,0,1,1.073,1.639,21.058,21.058,0,0,0,.3,6.537,27.563,27.563,0,0,0,1.629,5.521q.969,2.224,1.543,2.224.5-.1,1.285-1.515a16.845,16.845,0,0,0,1.428-4.179,34.4,34.4,0,0,0,.739-6.844,1.286,1.286,0,0,1,1.006-1.3,2.5,2.5,0,0,1,1.812.23,1.431,1.431,0,0,1,.805,1.5,39.2,39.2,0,0,1-.892,4.38,37.36,37.36,0,0,1-1.668,5.013,16.812,16.812,0,0,1-2.425,4.218,4.988,4.988,0,0,1-3.2,1.975q-1.61.1-3.02-1.869a19.285,19.285,0,0,1-2.444-4.975,36.81,36.81,0,0,1-1.533-6.077A20.364,20.364,0,0,1,392.284,204.225Zm-28.74,28.994a1.767,1.767,0,0,1,.448,1.664,1.287,1.287,0,0,1-.826.862,2.892,2.892,0,0,1-1.571.116,3.143,3.143,0,0,1-1.723-.914,1.819,1.819,0,0,1-.524-1.374,1.4,1.4,0,0,1,.849-1.134,2.682,2.682,0,0,1,1.729-.116A3.144,3.144,0,0,1,363.544,233.219ZM335.1,200.026l2.607-4.543a.9.9,0,0,1,1.016-.211,3.2,3.2,0,0,1,1.189.729q.517.5.288.958l-.019.019-3.336,4.122a.891.891,0,0,1-.613.307,1.217,1.217,0,0,1-.767-.249,1.014,1.014,0,0,1-.441-.556A.766.766,0,0,1,335.1,200.026Zm-5.377,10.017a9.35,9.35,0,0,1,2.281-4.822,7.48,7.48,0,0,1,5.013-2.339,6.615,6.615,0,0,1,4.592,1.188,5.715,5.715,0,0,1,2.128,3.384,6.207,6.207,0,0,1-.461,3.978,6.069,6.069,0,0,1-3.154,2.972,10.152,10.152,0,0,1-5.962.384q.365,2.953,1.725,3.9a2.921,2.921,0,0,0,2.617.556,2.378,2.378,0,0,0,1.6-1.946,1.322,1.322,0,0,1,.949-1.2,1.923,1.923,0,0,1,1.476.192,1.114,1.114,0,0,1,.623,1.16,5.171,5.171,0,0,1-1.984,3.077,5.75,5.75,0,0,1-4.007,1.064,7.626,7.626,0,0,1-4.39-1.735,8.247,8.247,0,0,1-2.741-4.294A12.382,12.382,0,0,1,329.727,210.043Zm22.384,43.765a1.363,1.363,0,0,1-1.209,1.142,3.477,3.477,0,0,1-2.044-.173,1.291,1.291,0,0,1-.95-1.314c.013-.115.025-.249.038-.4q.193-1.285.375-3.35a34.969,34.969,0,0,0,.115-4.183,11.184,11.184,0,0,0-.643-3.627,2.337,2.337,0,0,0-1.919-1.679,2.223,2.223,0,0,0-2.082,1.238,10.018,10.018,0,0,0-1.152,3.348,37.506,37.506,0,0,0-.518,4.232q-.144,2.178-.183,3.867-.038,1.229-.076,1.9a1.417,1.417,0,0,1-1.266,1.142,3.736,3.736,0,0,1-2.121-.173,1.3,1.3,0,0,1-.988-1.314q.019-.154.039-.326.173-1.3.374-3.5a40.412,40.412,0,0,0,.153-4.519,13.473,13.473,0,0,0-.614-4,2.545,2.545,0,0,0-1.91-1.929,2.464,2.464,0,0,0-2.2,1.142,9.024,9.024,0,0,0-1.545,4.2,26.4,26.4,0,0,0,.154,7.571,1.238,1.238,0,0,1-.921,1.247,3.268,3.268,0,0,1-2,.144,1.454,1.454,0,0,1-1.209-1.257q-.134-1.363-.307-2.725-.269-2.188-.461-4.539a49.616,49.616,0,0,1-.134-5.076,1.881,1.881,0,0,1,1.257-1.708,3.185,3.185,0,0,1,2.217-.048,1.486,1.486,0,0,1,1.113,1.487,5.533,5.533,0,0,1,3.1-3.3,4.79,4.79,0,0,1,4.03.249,6.121,6.121,0,0,1,2.888,3.838,6.424,6.424,0,0,1,2.332-3.243,4.878,4.878,0,0,1,6.313.547A6.854,6.854,0,0,1,352,242.467a33.653,33.653,0,0,1,.413,5.834Q352.361,251.237,352.111,253.808Zm-.273-26.78a3.025,3.025,0,0,1-2.119.211,1.712,1.712,0,0,1-1.323-1.524q-.1-1.055-.23-2.243-.422-3.451-.652-7.343a33.215,33.215,0,0,1,.336-7.343,10.624,10.624,0,0,1,2.5-5.579,6.832,6.832,0,0,1,4.333-2.023,6.414,6.414,0,0,1,4.419,1.208,5.855,5.855,0,0,1,2.252,4.4,1.384,1.384,0,0,1-.872,1.333,2.77,2.77,0,0,1-1.774.23,1.138,1.138,0,0,1-1-1.083,4.459,4.459,0,0,0-1.016-3.1,1.9,1.9,0,0,0-2.09-.45,3.884,3.884,0,0,0-2,2.09,9.921,9.921,0,0,0-.8,4.524,5.831,5.831,0,0,0,.585,2.761,1.808,1.808,0,0,0,1.361.882,8.892,8.892,0,0,0,2-.038q.517-.057,1.093-.1a1.1,1.1,0,0,1,1.1.719,2,2,0,0,1,.057,1.438,1.053,1.053,0,0,1-1.045.757l-5.042-.1a40.97,40.97,0,0,0,.326,4.793q.326,2.722.536,4.026A1.513,1.513,0,0,1,351.838,227.028Zm20.3,19.468a11.513,11.513,0,0,1-1.305,5.152,6.6,6.6,0,0,1-2.8,2.706,8.551,8.551,0,0,1-3.589.854,8.981,8.981,0,0,1-3.637-.595,6.255,6.255,0,0,1-2.917-2.39,9.653,9.653,0,0,1-1.41-4.769,12.571,12.571,0,0,1,.47-4.519A6.976,6.976,0,0,1,358.711,240a6.856,6.856,0,0,1,2.658-1.583,10.138,10.138,0,0,1,3.109-.48,9.037,9.037,0,0,1,3.8.825,6.3,6.3,0,0,1,2.879,2.715A9.531,9.531,0,0,1,372.135,246.5Zm-6.461-12.923a1.4,1.4,0,0,1,.849-1.134,2.68,2.68,0,0,1,1.728-.116,3.142,3.142,0,0,1,1.618.9,1.766,1.766,0,0,1,.448,1.664,1.287,1.287,0,0,1-.826.862,2.893,2.893,0,0,1-1.572.116,3.143,3.143,0,0,1-1.722-.914A1.815,1.815,0,0,1,365.674,233.574Zm6.139-10.6A7.19,7.19,0,0,1,367,221.46a6.573,6.573,0,0,1-2.253-3.729,6.932,6.932,0,0,1,.441-4.3,6.416,6.416,0,0,1,3.24-3.221,10.21,10.21,0,0,1,6.164-.479q-.442-3.374-1.764-4.419a2.2,2.2,0,0,0-2.617-.316,3.419,3.419,0,0,0-1.6,2.626,1.317,1.317,0,0,1-1.112,1.208,2.538,2.538,0,0,1-1.736-.316,1.269,1.269,0,0,1-.737-1.275,5.148,5.148,0,0,1,2.75-3.537,7.848,7.848,0,0,1,4.726-.757,6.3,6.3,0,0,1,3.892,2.07,9.872,9.872,0,0,1,2.1,4.1,16.425,16.425,0,0,1,.489,4.985,14.368,14.368,0,0,1-.8,4.218,7.435,7.435,0,0,1-2.243,3.278A6.611,6.611,0,0,1,371.813,222.974Zm9.906,9.226a72.592,72.592,0,0,0-1.132,11.937,74.89,74.89,0,0,0,.461,11.917,1.234,1.234,0,0,1-.893,1.267,3.292,3.292,0,0,1-1.986.192,1.474,1.474,0,0,1-1.247-1.228,127.317,127.317,0,0,1,.039-24.794,1.806,1.806,0,0,1,1.506-1.651,3.247,3.247,0,0,1,2.331.47A1.785,1.785,0,0,1,381.719,232.2Zm2.083-9.609a127.177,127.177,0,0,1,.039-24.769,1.8,1.8,0,0,1,1.5-1.648,3.242,3.242,0,0,1,2.329.47,1.784,1.784,0,0,1,.921,1.888,72.523,72.523,0,0,0-1.131,11.925,74.812,74.812,0,0,0,.46,11.905,1.234,1.234,0,0,1-.892,1.265,3.285,3.285,0,0,1-1.984.192A1.471,1.471,0,0,1,383.8,222.591Zm13.345,31.333a7.139,7.139,0,0,1-3.5,1.516,7.083,7.083,0,0,1-7.292-3.56,12.359,12.359,0,0,1-1.5-5.958,10.562,10.562,0,0,1,1.324-5.805,7.2,7.2,0,0,1,3.435-2.984,7.8,7.8,0,0,1,4.183-.489,6.7,6.7,0,0,1,3.56,1.66,4.858,4.858,0,0,1,1.565,3.473,1.208,1.208,0,0,1-.864,1.084,2.729,2.729,0,0,1-1.67.144,1.174,1.174,0,0,1-.979-1.036q-.231-2.3-1.238-3.023a1.9,1.9,0,0,0-2.207-.028,5.23,5.23,0,0,0-2.015,2.581,10.82,10.82,0,0,0-.662,4.827,13.98,13.98,0,0,0,1.151,5.124,3.227,3.227,0,0,0,1.967,1.871,2.079,2.079,0,0,0,1.919-.48,3.612,3.612,0,0,0,1.046-2.255,1.4,1.4,0,0,1,1.142-1.209,2.6,2.6,0,0,1,1.756.23,1.172,1.172,0,0,1,.749,1.209A5.223,5.223,0,0,1,397.147,253.923Zm.629,5.956a2.035,2.035,0,0,1,.7-.861,2.205,2.205,0,0,1,1.3-.444,1.277,1.277,0,0,1,.956.391.987.987,0,0,1,.173.98,1.886,1.886,0,0,1-.77.941,2.208,2.208,0,0,1-1.236.4,1.241,1.241,0,0,1-1.068-.57A.9.9,0,0,1,397.776,259.88Zm6.289,8.261a4.1,4.1,0,0,1-1.125,1.932,4.457,4.457,0,0,1-2.451,1.282,2.577,2.577,0,0,1-2.027-.489,1.99,1.99,0,0,1-.646-1.9,3.81,3.81,0,0,1,1.251-2.115,4.467,4.467,0,0,1,2.347-1.174,2.51,2.51,0,0,1,2.307.811A1.824,1.824,0,0,1,404.065,268.14Zm1.2-14.006a1.757,1.757,0,0,1-.269-1.938,1.72,1.72,0,0,1,1.372-.892,1.366,1.366,0,0,1,1.391.912,2.27,2.27,0,0,0,1.545,1.43,1.85,1.85,0,0,0,1.622-.384,1.354,1.354,0,0,0,.383-1.544,2.733,2.733,0,0,0-1.036-1.209,17.741,17.741,0,0,0-1.861-1.132,19.168,19.168,0,0,1-2.955-1.91,6.129,6.129,0,0,1-2.053-2.907,5.992,5.992,0,0,1,.547-5.057,6.769,6.769,0,0,1,3.743-2.763,7.235,7.235,0,0,1,4.692.086,5.775,5.775,0,0,1,3.4,3.512q.442,1.381-.326,1.986a2.339,2.339,0,0,1-1.737.508,1.163,1.163,0,0,1-1.161-.844q-.461-2.5-1.7-2.927a2.159,2.159,0,0,0-2.3.548,3.229,3.229,0,0,0-.988,2.667,3.736,3.736,0,0,0,1.286,2.457,14.172,14.172,0,0,0,2.514,1.708,12.09,12.09,0,0,1,2.936,2.121,4.128,4.128,0,0,1,1.055,3.464,4.266,4.266,0,0,1-2.274,3.272,6.934,6.934,0,0,1-4.193.787A5.232,5.232,0,0,1,405.263,254.135Zm3.747,13.1a3.542,3.542,0,0,1-.769-2.06,2.048,2.048,0,0,1,.586-1.55,1.582,1.582,0,0,1,1.566-.321,3.028,3.028,0,0,1,1.544,1.2,3.548,3.548,0,0,1,.693,1.967,1.994,1.994,0,0,1-.867,1.739,1.451,1.451,0,0,1-1.342.108A3.259,3.259,0,0,1,409.01,267.238Z" transform="translate(-4.146)"/><path class="b" d="M316.981,416.385c-2.73-.65-5.92-1.424-8.026-1.976-1.085-.284-2.172-.547-3.237-.888-1.069-.323-2.139-.632-3.183-1.017-1.054-.349-2.108-.688-3.134-1.1l-.124-.047a60.27,60.27,0,0,1-20.168-10.338l-.1-.05c-.973-.533-2.006-1.016-3.034-1.531a11.464,11.464,0,0,0-2.124-.7.753.753,0,0,0-.847,1.088c.32.6.665,1.189,1.018,1.774a33.969,33.969,0,0,0,2.175,2.886,32.306,32.306,0,0,0,5.3,4.883,23.171,23.171,0,0,0,3.041,1.929,24.254,24.254,0,0,0,3.273,1.488c1.109.453,2.26.792,3.4,1.151,1.129.379,2.274.695,3.409,1.023,1.127.357,2.276.629,3.419.907,1.138.3,2.292.519,3.442.744s2.311.382,3.467.544c1.153.181,2.315.28,3.472.4q4.2.361,8.387.323A.753.753,0,0,0,316.981,416.385Z" transform="translate(-17.703 -125.662)"/><path class="b" d="M468.475,336.715a3.352,3.352,0,0,0-2.61,1.8,9.511,9.511,0,0,0-1.085,5.211,8.907,8.907,0,0,0,1.142,4.3,3.327,3.327,0,0,0,2.332,1.775q1.324.163,2.408-1.487a11.969,11.969,0,0,0,1.353-5.489,7.574,7.574,0,0,0-.969-4.634A2.936,2.936,0,0,0,468.475,336.715Z" transform="translate(-107.768 -96.561)"/></g></svg>