<svg xmlns="http://www.w3.org/2000/svg" width="30" height="30" viewBox="0 0 30 30"><defs><style>.a{fill:#08364d;}</style></defs><path class="a" d="M0,0V30H30V0ZM22.95,10.95v.6a11.683,11.683,0,0,1-11.7,11.7,12.837,12.837,0,0,1-6.3-1.8H6a7.57,7.57,0,0,0,5.1-1.8A4.2,4.2,0,0,1,7.2,16.8h.75A2.553,2.553,0,0,0,9,16.65,4.16,4.16,0,0,1,5.7,12.6h0a3.994,3.994,0,0,0,1.8.45,4.426,4.426,0,0,1-1.65-3.3,3.444,3.444,0,0,1,.6-2.1A11.879,11.879,0,0,0,14.85,12c0-.3-.15-.6-.15-.9a4.033,4.033,0,0,1,4.05-4.05,3.776,3.776,0,0,1,3,1.35A7.641,7.641,0,0,0,24.3,7.35,3.832,3.832,0,0,1,22.5,9.6,11.237,11.237,0,0,0,24.9,9,11.95,11.95,0,0,1,22.95,10.95Z"/></svg>